RobotoFlex_wght400a-SO-GLYPHORDER.ufo
<glyph name="gravecomb" format="2">
  <unicode hex="0300"/>
  <anchor x="0" y="1052" name="_top"/>
  <anchor x="0" y="1599" name="top"/>
  <outline>
    <contour>
      <point x="66" y="1215" type="line"/>
      <point x="-233" y="1490" type="line"/>
      <point x="-96" y="1603" type="line"/>
      <point x="171" y="1294" type="line"/>
    </contour>
  </outline>
</glyph>
<glyph name="macroncomb" format="2">
  <unicode hex="0304"/>
  <anchor x="0" y="1052" name="_top"/>
  <anchor x="0" y="1382" name="top"/>
  <outline>
    <contour>
      <point x="314" y="1382" type="line"/>
      <point x="314" y="1230" type="line"/>
      <point x="-314" y="1230" type="line"/>
      <point x="-314" y="1382" type="line"/>
    </contour>
  </outline>
</glyph>
<glyph name="dotaccentcomb" format="2">
  <unicode hex="0307"/>
  <anchor x="0" y="1052" name="_top"/>
  <anchor x="0" y="1458" name="top"/>
  <outline>
    <contour>
      <point x="-126" y="1337" type="qcurve" smooth="yes"/>
      <point x="-126" y="1388"/>
      <point x="-61" y="1458"/>
      <point x="0" y="1458" type="qcurve" smooth="yes"/>
      <point x="61" y="1458"/>
      <point x="126" y="1388"/>
      <point x="126" y="1337" type="qcurve" smooth="yes"/>
      <point x="126" y="1286"/>
      <point x="61" y="1216"/>
      <point x="0" y="1216" type="qcurve" smooth="yes"/>
      <point x="-61" y="1216"/>
      <point x="-126" y="1286"/>
    </contour>
  </outline>
</glyph>
<glyph name="dieresiscomb" format="2">
  <unicode hex="0308"/>
  <anchor x="0" y="1052" name="_GRK_top"/>
  <anchor x="0" y="1052" name="_top"/>
  <anchor x="0" y="1431" name="top"/>
  <outline>
    <contour>
      <point x="-325" y="1319" type="qcurve" smooth="yes"/>
      <point x="-325" y="1364"/>
      <point x="-269" y="1426"/>
      <point x="-216" y="1426" type="qcurve" smooth="yes"/>
      <point x="-162" y="1426"/>
      <point x="-106" y="1364"/>
      <point x="-106" y="1319" type="qcurve" smooth="yes"/>
      <point x="-106" y="1276"/>
      <point x="-162" y="1215"/>
      <point x="-216" y="1215" type="qcurve" smooth="yes"/>
      <point x="-269" y="1215"/>
      <point x="-325" y="1276"/>
    </contour>
    <contour>
      <point x="106" y="1319" type="qcurve" smooth="yes"/>
      <point x="106" y="1364"/>
      <point x="161" y="1426"/>
      <point x="215" y="1426" type="qcurve" smooth="yes"/>
      <point x="268" y="1426"/>
      <point x="325" y="1364"/>
      <point x="325" y="1319" type="qcurve" smooth="yes"/>
      <point x="325" y="1276"/>
      <point x="268" y="1215"/>
      <point x="215" y="1215" type="qcurve" smooth="yes"/>
      <point x="161" y="1215"/>
      <point x="106" y="1276"/>
    </contour>
  </outline>
</glyph>
<glyph name="breveinvertedcomb" format="2">
  <unicode hex="030F"/>
  <anchor x="0" y="1052" name="_top"/>
  <anchor x="0" y="1540" name="top"/>
  <outline>
    <contour>
      <point x="-233" y="1220" type="qcurve"/>
      <point x="-336" y="1274" type="line"/>
      <point x="-296" y="1376"/>
      <point x="-126" y="1540"/>
      <point x="0" y="1540" type="qcurve" smooth="yes"/>
      <point x="126" y="1540"/>
      <point x="296" y="1376"/>
      <point x="336" y="1273" type="qcurve"/>
      <point x="233" y="1220" type="line"/>
      <point x="197" y="1277"/>
      <point x="79" y="1376"/>
      <point x="0" y="1376" type="qcurve" smooth="yes"/>
      <point x="-79" y="1376"/>
      <point x="-197" y="1281"/>
    </contour>
  </outline>
</glyph>
<glyph name="dieresisbelowcomb" format="2">
  <unicode hex="0324"/>
  <anchor x="0" y="0" name="_bottom"/>
  <anchor x="0" y="-421" name="bottom"/>
  <outline>
    <contour>
      <point x="-346" y="-308" type="qcurve" smooth="yes"/>
      <point x="-346" y="-253"/>
      <point x="-286" y="-194"/>
      <point x="-230" y="-194" type="qcurve" smooth="yes"/>
      <point x="-177" y="-194"/>
      <point x="-114" y="-257"/>
      <point x="-114" y="-308" type="qcurve" smooth="yes"/>
      <point x="-114" y="-362"/>
      <point x="-173" y="-421"/>
      <point x="-230" y="-421" type="qcurve" smooth="yes"/>
      <point x="-283" y="-421"/>
      <point x="-346" y="-359"/>
    </contour>
    <contour>
      <point x="114" y="-308" type="qcurve" smooth="yes"/>
      <point x="114" y="-253"/>
      <point x="174" y="-194"/>
      <point x="230" y="-194" type="qcurve" smooth="yes"/>
      <point x="283" y="-194"/>
      <point x="346" y="-257"/>
      <point x="346" y="-308" type="qcurve" smooth="yes"/>
      <point x="346" y="-362"/>
      <point x="287" y="-421"/>
      <point x="230" y="-421" type="qcurve" smooth="yes"/>
      <point x="177" y="-421"/>
      <point x="114" y="-359"/>
    </contour>
  </outline>
</glyph>
<glyph name="Cy-descender.case" format="2">
  <advance width="340"/>
  <anchor x="34" y="0" name="_cy-descender"/>
  <outline>
    <contour>
      <point x="138" y="-290" type="line"/>
      <point x="138" y="0" type="line"/>
      <point x="34" y="0" type="line"/>
      <point x="34" y="158" type="line"/>
      <point x="310" y="158" type="line"/>
      <point x="310" y="-290" type="line"/>
    </contour>
  </outline>
</glyph>
<glyph name="acutecombstack.case" format="2">
  <anchor x="0" y="1536" name="_top"/>
  <anchor x="0" y="1941" name="top"/>
  <outline>
    <contour>
      <point x="-210" y="1715" type="line"/>
      <point x="93" y="1941" type="line"/>
      <point x="209" y="1777" type="line"/>
      <point x="-128" y="1605" type="line"/>
    </contour>
  </outline>
</glyph>
<glyph name="brevecomb-stack.case" format="2">
  <anchor x="0.0" y="1456" name="_top"/>
  <outline>
    <contour>
      <point x="262" y="1897" type="qcurve"/>
      <point x="365" y="1831" type="line"/>
      <point x="328" y="1744"/>
      <point x="137" y="1597"/>
      <point x="0" y="1597" type="qcurve" smooth="yes"/>
      <point x="-122" y="1597"/>
      <point x="-318" y="1732"/>
      <point x="-364" y="1832" type="qcurve"/>
      <point x="-254" y="1897" type="line"/>
      <point x="-215" y="1843"/>
      <point x="-85" y="1756"/>
      <point x="0" y="1756" type="qcurve" smooth="yes"/>
      <point x="92" y="1756"/>
      <point x="223" y="1839"/>
    </contour>
  </outline>
</glyph>
<glyph name="brevecombstack.case" format="2">
  <anchor x="0" y="1536" name="_top"/>
  <anchor x="0" y="1910" name="top"/>
  <outline>
    <contour>
      <point x="262" y="1910" type="qcurve"/>
      <point x="365" y="1844" type="line"/>
      <point x="328" y="1757"/>
      <point x="137" y="1610"/>
      <point x="0" y="1610" type="qcurve" smooth="yes"/>
      <point x="-122" y="1610"/>
      <point x="-318" y="1745"/>
      <point x="-364" y="1845" type="qcurve"/>
      <point x="-254" y="1910" type="line"/>
      <point x="-215" y="1856"/>
      <point x="-85" y="1769"/>
      <point x="0" y="1769" type="qcurve" smooth="yes"/>
      <point x="92" y="1769"/>
      <point x="223" y="1852"/>
    </contour>
  </outline>
</glyph>
<glyph name="breveinvertedcomb-stack.case" format="2">
  <anchor x="512" y="1456" name="_top"/>
  <anchor x="512" y="1936" name="top"/>
  <outline>
    <contour>
      <point x="-291" y="1589" type="qcurve"/>
      <point x="-384" y="1659" type="line"/>
      <point x="-345" y="1748"/>
      <point x="-143" y="1906"/>
      <point x="1" y="1906" type="qcurve" smooth="yes"/>
      <point x="129" y="1906"/>
      <point x="336" y="1762"/>
      <point x="384" y="1658" type="qcurve"/>
      <point x="284" y="1589" type="line"/>
      <point x="241" y="1642"/>
      <point x="96" y="1737"/>
      <point x="1" y="1737" type="qcurve" smooth="yes"/>
      <point x="-101" y="1737"/>
      <point x="-248" y="1647"/>
    </contour>
  </outline>
</glyph>
<glyph name="breveinvertedcomb.stack" format="2">
  <anchor x="0.0" y="1456" name="_top"/>
  <anchor x="0.0" y="1936" name="top"/>
  <outline>
    <contour>
      <point x="-242" y="1215" type="qcurve"/>
      <point x="-337" y="1269" type="line"/>
      <point x="-302" y="1368"/>
      <point x="-127" y="1535"/>
      <point x="-1" y="1535" type="qcurve" smooth="yes"/>
      <point x="112" y="1535"/>
      <point x="293" y="1382"/>
      <point x="335" y="1268" type="qcurve"/>
      <point x="231" y="1215" type="line"/>
      <point x="196" y="1272"/>
      <point x="77" y="1371"/>
      <point x="-2" y="1371" type="qcurve" smooth="yes"/>
      <point x="-86" y="1371"/>
      <point x="-206" y="1276"/>
    </contour>
  </outline>
</glyph>
<glyph name="caroncomb-stack.case" format="2">
  <anchor x="0.0" y="1456" name="_top"/>
  <anchor x="0.0" y="1900" name="top"/>
  <outline>
    <contour>
      <point x="-75" y="1590" type="line"/>
      <point x="-340" y="1900" type="line"/>
      <point x="-173" y="1900" type="line"/>
      <point x="-7" y="1748" type="line"/>
      <point x="153" y="1900" type="line"/>
      <point x="326" y="1900" type="line"/>
      <point x="69" y="1590" type="line"/>
    </contour>
  </outline>
</glyph>
<glyph name="caroncomb-stack" format="2">
  <anchor x="0" y="1052" name="_top"/>
  <anchor x="0" y="1528" name="top"/>
  <outline>
    <contour>
      <point x="-54" y="1215" type="line"/>
      <point x="-302" y="1528" type="line"/>
      <point x="-148" y="1528" type="line"/>
      <point x="2" y="1369" type="line"/>
      <point x="151" y="1528" type="line"/>
      <point x="303" y="1528" type="line"/>
      <point x="58" y="1215" type="line"/>
    </contour>
  </outline>
</glyph>
<glyph name="commaaccent" format="2">
  <advance width="1024"/>
  <anchor x="512.0" y="0" name="_bottom"/>
  <anchor x="512.0" y="-600" name="bottom"/>
  <outline>
    <contour>
      <point x="355" y="-597" type="line"/>
      <point x="443" y="-225" type="line"/>
      <point x="645" y="-223" type="line"/>
      <point x="518" y="-600" type="line"/>
    </contour>
  </outline>
</glyph>
<glyph name="commaaccentturnedcomb" format="2">
  <anchor x="0" y="1052" name="_top"/>
  <outline>
    <contour>
      <point x="124" y="1652" type="line"/>
      <point x="39" y="1291" type="line"/>
      <point x="-154" y="1315" type="line"/>
      <point x="-33" y="1676" type="line"/>
    </contour>
  </outline>
</glyph>
<glyph name="dblgravecomb-stack" format="2">
  <anchor x="512" y="1456" name="_top"/>
  <anchor x="512" y="1974" name="top"/>
  <outline>
    <contour>
      <point x="151" y="1215" type="line"/>
      <point x="-49" y="1430" type="line"/>
      <point x="88" y="1543" type="line"/>
      <point x="256" y="1294" type="line"/>
    </contour>
    <contour>
      <point x="-187" y="1215" type="line"/>
      <point x="-387" y="1430" type="line"/>
      <point x="-250" y="1543" type="line"/>
      <point x="-82" y="1294" type="line"/>
    </contour>
  </outline>
</glyph>
<glyph name="dblgravecomb.case" format="2">
  <advance width="1024"/>
  <anchor x="512" y="1456" name="_top"/>
  <anchor x="512" y="1974" name="top"/>
  <outline>
    <contour>
      <point x="368" y="1600" type="line"/>
      <point x="131" y="1876" type="line"/>
      <point x="288" y="1974" type="line"/>
      <point x="480" y="1675" type="line"/>
    </contour>
    <contour>
      <point x="668" y="1600" type="line"/>
      <point x="431" y="1876" type="line"/>
      <point x="588" y="1974" type="line"/>
      <point x="780" y="1675" type="line"/>
    </contour>
  </outline>
</glyph>
<glyph name="dieresiscomb-stack" format="2">
  <anchor x="0.0" y="1052" name="_top"/>
  <anchor x="0.0" y="1425" name="top"/>
  <outline>
    <contour>
      <point x="-295" y="1319" type="qcurve" smooth="yes"/>
      <point x="-295" y="1364"/>
      <point x="-239" y="1426"/>
      <point x="-186" y="1426" type="qcurve" smooth="yes"/>
      <point x="-132" y="1426"/>
      <point x="-76" y="1364"/>
      <point x="-76" y="1319" type="qcurve" smooth="yes"/>
      <point x="-76" y="1276"/>
      <point x="-132" y="1215"/>
      <point x="-186" y="1215" type="qcurve" smooth="yes"/>
      <point x="-239" y="1215"/>
      <point x="-295" y="1276"/>
    </contour>
    <contour>
      <point x="76" y="1319" type="qcurve" smooth="yes"/>
      <point x="76" y="1364"/>
      <point x="131" y="1426"/>
      <point x="185" y="1426" type="qcurve" smooth="yes"/>
      <point x="238" y="1426"/>
      <point x="295" y="1364"/>
      <point x="295" y="1319" type="qcurve" smooth="yes"/>
      <point x="295" y="1276"/>
      <point x="238" y="1215"/>
      <point x="185" y="1215" type="qcurve" smooth="yes"/>
      <point x="131" y="1215"/>
      <point x="76" y="1276"/>
    </contour>
  </outline>
</glyph>
<glyph name="dieresiscomb.case" format="2">
  <anchor x="0" y="1456" name="_top"/>
  <anchor x="0" y="1901" name="top"/>
  <outline>
    <contour>
      <point x="-346" y="1787" type="qcurve" smooth="yes"/>
      <point x="-346" y="1842"/>
      <point x="-286" y="1901"/>
      <point x="-230" y="1901" type="qcurve" smooth="yes"/>
      <point x="-177" y="1901"/>
      <point x="-114" y="1838"/>
      <point x="-114" y="1787" type="qcurve" smooth="yes"/>
      <point x="-114" y="1733"/>
      <point x="-173" y="1674"/>
      <point x="-230" y="1674" type="qcurve" smooth="yes"/>
      <point x="-283" y="1674"/>
      <point x="-346" y="1736"/>
    </contour>
    <contour>
      <point x="114" y="1787" type="qcurve" smooth="yes"/>
      <point x="114" y="1842"/>
      <point x="174" y="1901"/>
      <point x="230" y="1901" type="qcurve" smooth="yes"/>
      <point x="283" y="1901"/>
      <point x="346" y="1838"/>
      <point x="346" y="1787" type="qcurve" smooth="yes"/>
      <point x="346" y="1733"/>
      <point x="287" y="1674"/>
      <point x="230" y="1674" type="qcurve" smooth="yes"/>
      <point x="177" y="1674"/>
      <point x="114" y="1736"/>
    </contour>
  </outline>
</glyph>
<glyph name="dotaccentcomb-stack.case" format="2">
  <anchor x="512" y="1456" name="_top"/>
  <anchor x="512" y="1836" name="top"/>
  <outline>
    <contour>
      <point x="-116" y="1726" type="qcurve" smooth="yes"/>
      <point x="-116" y="1773"/>
      <point x="-56" y="1837"/>
      <point x="0" y="1837" type="qcurve" smooth="yes"/>
      <point x="56" y="1837"/>
      <point x="116" y="1773"/>
      <point x="116" y="1726" type="qcurve" smooth="yes"/>
      <point x="116" y="1679"/>
      <point x="56" y="1615"/>
      <point x="0" y="1615" type="qcurve" smooth="yes"/>
      <point x="-56" y="1615"/>
      <point x="-116" y="1679"/>
    </contour>
  </outline>
</glyph>
<glyph name="dotaccentcomb-stack" format="2">
  <anchor x="0.0" y="1456" name="_top"/>
  <anchor x="0.0" y="1836" name="top"/>
  <outline>
    <contour>
      <point x="-116" y="1324" type="qcurve" smooth="yes"/>
      <point x="-116" y="1371"/>
      <point x="-56" y="1435"/>
      <point x="0" y="1435" type="qcurve" smooth="yes"/>
      <point x="56" y="1435"/>
      <point x="116" y="1371"/>
      <point x="116" y="1324" type="qcurve" smooth="yes"/>
      <point x="116" y="1277"/>
      <point x="56" y="1213"/>
      <point x="0" y="1213" type="qcurve" smooth="yes"/>
      <point x="-56" y="1213"/>
      <point x="-116" y="1277"/>
    </contour>
  </outline>
</glyph>
<glyph name="gravecombstack.case" format="2">
  <anchor x="0" y="1536" name="_top"/>
  <anchor x="0" y="1919" name="top"/>
  <outline>
    <contour>
      <point x="128" y="1570" type="line"/>
      <point x="-255" y="1756" type="line"/>
      <point x="-148" y="1919" type="line"/>
      <point x="206" y="1686" type="line"/>
    </contour>
  </outline>
</glyph>
<glyph name="hungarumlautcomb-stack.case" format="2">
  <anchor x="512" y="1456" name="_top"/>
  <anchor x="512" y="1998" name="top"/>
  <outline>
    <contour>
      <point x="-263" y="1654" type="line"/>
      <point x="-50" y="1993" type="line"/>
      <point x="112" y="1894" type="line"/>
      <point x="-136" y="1595" type="line"/>
    </contour>
    <contour>
      <point x="71" y="1654" type="line"/>
      <point x="284" y="1993" type="line"/>
      <point x="446" y="1894" type="line"/>
      <point x="198" y="1595" type="line"/>
    </contour>
  </outline>
</glyph>
<glyph name="hungarumlautcomb-stack" format="2">
  <anchor x="0" y="1052" name="_top"/>
  <anchor x="0" y="1543" name="top"/>
  <outline>
    <contour>
      <point x="-256" y="1295" type="line"/>
      <point x="-61" y="1543" type="line"/>
      <point x="76" y="1435" type="line"/>
      <point x="-158" y="1218" type="line"/>
    </contour>
    <contour>
      <point x="54" y="1295" type="line"/>
      <point x="249" y="1543" type="line"/>
      <point x="386" y="1435" type="line"/>
      <point x="152" y="1218" type="line"/>
    </contour>
  </outline>
</glyph>
<glyph name="hungarumlautcomb.case" format="2">
  <anchor x="0" y="1456" name="_top"/>
  <anchor x="0" y="1998" name="top"/>
  <outline>
    <contour>
      <point x="-263" y="1659" type="line"/>
      <point x="-50" y="1998" type="line"/>
      <point x="112" y="1899" type="line"/>
      <point x="-136" y="1600" type="line"/>
    </contour>
    <contour>
      <point x="71" y="1659" type="line"/>
      <point x="284" y="1998" type="line"/>
      <point x="446" y="1899" type="line"/>
      <point x="198" y="1600" type="line"/>
    </contour>
  </outline>
</glyph>
<glyph name="macroncomb-stack" format="2">
  <anchor x="512" y="1456" name="_top"/>
  <anchor x="512" y="1830" name="top"/>
  <outline>
    <contour>
      <point x="-296" y="1225" type="line"/>
      <point x="-296" y="1381" type="line"/>
      <point x="296" y="1381" type="line"/>
      <point x="296" y="1225" type="line"/>
    </contour>
  </outline>
</glyph>
<glyph name="ringcomb-stack.case" format="2">
  <anchor x="0.0" y="1456" name="_top"/>
  <anchor x="0.0" y="1970" name="top"/>
  <outline>
    <contour>
      <point x="-227" y="1787" type="qcurve" smooth="yes"/>
      <point x="-227" y="1882"/>
      <point x="-99" y="2004"/>
      <point x="0" y="2004" type="qcurve" smooth="yes"/>
      <point x="99" y="2004"/>
      <point x="227" y="1882"/>
      <point x="227" y="1787" type="qcurve" smooth="yes"/>
      <point x="227" y="1692"/>
      <point x="99" y="1570"/>
      <point x="0" y="1570" type="qcurve"/>
      <point x="-99" y="1570"/>
      <point x="-227" y="1692"/>
    </contour>
    <contour>
      <point x="-104" y="1787" type="qcurve" smooth="yes"/>
      <point x="-104" y="1740"/>
      <point x="-48" y="1683"/>
      <point x="0" y="1683" type="qcurve" smooth="yes"/>
      <point x="51" y="1683"/>
      <point x="104" y="1737"/>
      <point x="104" y="1787" type="qcurve" smooth="yes"/>
      <point x="104" y="1834"/>
      <point x="48" y="1891"/>
      <point x="0" y="1891" type="qcurve" smooth="yes"/>
      <point x="-51" y="1891"/>
      <point x="-104" y="1838"/>
    </contour>
  </outline>
</glyph>
<glyph name="tonos.case" format="2">
  <advance width="1024"/>
  <outline>
<<<<<<< HEAD
    <component base="tonoscomb.case" xOffset="523"/>
=======
    <contour>
      <point x="538" y="1074" type="line"/>
      <point x="415" y="1104" type="line"/>
      <point x="488" y="1476" type="line"/>
      <point x="673" y="1457" type="line"/>
    </contour>
>>>>>>> 51d011ebf8e85b596ccee80b6074b802078cb5aa
  </outline>
</glyph>
<glyph name="tonoscomb.case" format="2">
  <anchor x="0" y="1074" name="_tonos"/>
  <outline>
    <contour>
      <point x="0" y="1074" type="line"/>
      <point x="-123" y="1104" type="line"/>
      <point x="-50" y="1476" type="line"/>
      <point x="135" y="1457" type="line"/>
    </contour>
  </outline>
</glyph>
<glyph name="tonoscomb" format="2">
  <anchor x="0" y="1052" name="_top"/>
  <outline>
    <contour>
      <point x="36" y="1204" type="line"/>
      <point x="-87" y="1234" type="line"/>
      <point x="-14" y="1606" type="line"/>
      <point x="171" y="1587" type="line"/>
    </contour>
  </outline>
</glyph>
